<?xml version="1.0" encoding="utf-8"?>
<!-- Generator: Adobe Illustrator 24.0.1, SVG Export Plug-In . SVG Version: 6.00 Build 0)  -->
<svg version="1.1" id="Layer_1" xmlns="http://www.w3.org/2000/svg" xmlns:xlink="http://www.w3.org/1999/xlink" x="0px" y="0px"
	 viewBox="0 0 65.69 55.96" style="enable-background:new 0 0 65.69 55.96;" xml:space="preserve">
<style type="text/css">
	.st0{fill:#1E7AE4;}
	.st1{fill:none;stroke:#1E7AE4;stroke-miterlimit:10;}
</style>
<g>
	<g>
		<path class="st0" d="M19.9,36.37v-1.25c0.55,0,0.98-0.15,1.27-0.44c0.3-0.3,0.54-0.7,0.75-1.21c0.2-0.51,0.42-1.08,0.67-1.7
			l5.6-15.33h1.11l6.07,15.55c0.15,0.35,0.31,0.83,0.5,1.43c0.18,0.6,0.27,1.11,0.25,1.54c0.31-0.04,0.62-0.06,0.93-0.07
			c0.31-0.01,0.6-0.02,0.87-0.04v1.52h-6.73v-1.22c0.65-0.02,1.08-0.16,1.29-0.43c0.21-0.27,0.3-0.6,0.25-0.98
			c-0.05-0.39-0.14-0.78-0.29-1.16l-0.83-2.25L24.8,30.5L24,32.91c-0.11,0.37-0.23,0.72-0.36,1.05s-0.26,0.66-0.39,0.97
			c0.33-0.04,0.69-0.06,1.07-0.07c0.38-0.01,0.72-0.02,1.01-0.04v1.55H19.9z M25.3,29h5.82l-1.75-4.68
			c-0.22-0.61-0.43-1.21-0.64-1.82c-0.2-0.6-0.39-1.18-0.55-1.73h-0.03c-0.15,0.46-0.31,0.97-0.5,1.52s-0.4,1.15-0.64,1.8L25.3,29z"
			/>
		<path class="st0" d="M41.07,36.82c-0.5,0-0.92-0.19-1.26-0.55c-0.34-0.37-0.51-0.82-0.51-1.36c0-0.52,0.18-0.97,0.54-1.34
			c0.36-0.38,0.77-0.57,1.23-0.57c0.5,0,0.91,0.19,1.25,0.55s0.5,0.82,0.5,1.36c0,0.54-0.17,0.99-0.51,1.36
			C41.96,36.63,41.55,36.82,41.07,36.82z"/>
	</g>
</g>
<circle class="st1" cx="31.16" cy="28.35" r="21.92"/>
</svg>
